<?xml version="1.0" encoding="utf-8"?>
<!-- Generator: Adobe Illustrator 21.0.0, SVG Export Plug-In . SVG Version: 6.00 Build 0)  -->
<svg version="1.1" id="Layer_1" xmlns="http://www.w3.org/2000/svg" xmlns:xlink="http://www.w3.org/1999/xlink" x="0px" y="0px"
	 viewBox="0 0 372 120" enable-background="new 0 0 372 120" xml:space="preserve">
<g>
	<rect x="86" fill="#FFFFFF" width="28" height="120"/>
	<polygon fill="#FFFFFF" points="210,120 282,120 282,91 238,91 238,74 267,74 267,45 238,45 238,29 282,29 282,0 210,0 	"/>
	<path fill="#FFFFFF" d="M344.7,56L372,0h-32l-24,48.4V0h-28l0.1,120H316V76c18.7,0,27,11.3,27,28.7V120h28v-15.2
		C371,83.4,363.8,63.8,344.7,56z"/>
	<path fill="#FFFFFF" d="M0,82.4V120h27.8v-17h24.3v17h27.8L80,0C31.8,0,0,25.1,0,82.4z M56,74H24v-3h4c2-18.2,7-29,24-36v36h4V74z"
		/>
	<path fill="#FFFFFF" d="M191.1,58.2c7.1-5.6,9.9-14.4,9.9-22.2c0-15.8-10.7-33.1-32.3-35.5c-3.5-0.4-6.9-0.4-10.8-0.5H120v120h45
		c24.4,0,39.1-16.3,39.1-34.9C204.2,73.9,198.8,63.6,191.1,58.2z M148,27h13.5c4.4,0,9,3.2,9,9c0,5.8-4.6,9-9,9H148V27z M164.3,93
		H148V74h16.3c4.6,0,10,3.8,10,10C174.2,90.1,168.9,93,164.3,93z"/>
</g>
</svg>
